<?xml version="1.0" encoding="UTF-8" standalone="no"?>
<!DOCTYPE svg PUBLIC "-//W3C//DTD SVG 1.1//EN" "http://www.w3.org/Graphics/SVG/1.1/DTD/svg11.dtd">
<!-- Created with Vectornator (http://vectornator.io/) -->
<svg height="100%" stroke-miterlimit="10" style="fill-rule:nonzero;clip-rule:evenodd;stroke-linecap:round;stroke-linejoin:round;" version="1.1" viewBox="0 0 19 18.1701" width="100%" xml:space="preserve" xmlns="http://www.w3.org/2000/svg" xmlns:xlink="http://www.w3.org/1999/xlink">
<defs/>
<clipPath id="ArtboardFrame">
<rect height="18.1701" width="19" x="0" y="0"/>
</clipPath>
<g clip-path="url(#ArtboardFrame)" id="Без-названия">
<path d="M9.49999 10.5112L0.309164 1.72298C-0.103055 1.32885-0.103055 0.689777 0.309164 0.295619C0.721383-0.0985396 1.38973-0.0985396 1.80194 0.295619L9.49999 7.65645L17.198 0.295619C17.6102-0.0985396 18.2786-0.0985396 18.6908 0.295619C19.1031 0.689777 19.1031 1.32885 18.6908 1.72298L9.49999 10.5112Z" fill="#1b1f2b" fill-rule="evenodd" opacity="1" stroke="none"/>
<path d="M9.49999 7.65645L18.6908 16.4447C19.1031 16.8388 19.1031 17.4779 18.6908 17.872C18.2786 18.2662 17.6102 18.2662 17.198 17.872L9.49999 10.5112L1.80194 17.872C1.38973 18.2662 0.721383 18.2662 0.309164 17.872C-0.103055 17.4779-0.103055 16.8388 0.309164 16.4447L9.49999 7.65645Z" fill="#1b1f2b" fill-rule="evenodd" opacity="1" stroke="none"/>
</g>
</svg>
