<svg width="19" height="35" viewBox="0 0 19 35" fill="none" xmlns="http://www.w3.org/2000/svg">
<path fill-rule="evenodd" clip-rule="evenodd" d="M9.41422 18.8284L0.707106 10.1213C0.316582 9.7308 0.316582 9.09763 0.707106 8.70711C1.09763 8.31659 1.7308 8.31659 2.12132 8.70711L9.41422 16L16.7071 8.70711C17.0976 8.31659 17.7308 8.31659 18.1213 8.70711C18.5119 9.09763 18.5119 9.7308 18.1213 10.1213L9.41422 18.8284Z" fill="#1B1F2B"/>
<path fill-rule="evenodd" clip-rule="evenodd" d="M9.41422 16L18.1213 24.7071C18.5119 25.0976 18.5119 25.7308 18.1213 26.1213C17.7308 26.5118 17.0976 26.5118 16.7071 26.1213L9.41422 18.8284L2.12132 26.1213C1.7308 26.5118 1.09763 26.5118 0.707106 26.1213C0.316582 25.7308 0.316582 25.0976 0.707106 24.7071L9.41422 16Z" fill="#1B1F2B"/>
</svg>
